<?xml version="1.0" encoding="UTF-8" standalone="no"?>
<!DOCTYPE svg PUBLIC "-//W3C//DTD SVG 1.1//EN"
 "http://www.w3.org/Graphics/SVG/1.1/DTD/svg11.dtd">
<!-- Generated by graphviz version 14.1.4 (20260321.0153)
 -->
<!-- Title: LLRArchitecture Pages: 1 -->
<svg width="766pt" height="902pt"
 viewBox="0.00 0.00 766.00 902.00" xmlns="http://www.w3.org/2000/svg" xmlns:xlink="http://www.w3.org/1999/xlink">
<g id="graph0" class="graph" transform="scale(1 1) rotate(0) translate(25.2 876.99)">
<title>LLRArchitecture</title>
<polygon fill="white" stroke="none" points="-25.2,25.2 -25.2,-876.99 740.36,-876.99 740.36,25.2 -25.2,25.2"/>
<text xml:space="preserve" text-anchor="middle" x="357.58" y="-824.99" font-family="Helvetica,sans-Serif" font-size="24.00" fill="#111827">Long Long Run Architecture</text>
<!-- user -->
<g id="node1" class="node">
<title>user</title>
<path fill="#f8fafc" stroke="#cbd5e1" stroke-width="1.4" d="M385.41,-819.04C385.41,-819.04 59.25,-819.04 59.25,-819.04 53.25,-819.04 47.25,-813.04 47.25,-807.04 47.25,-807.04 47.25,-792.08 47.25,-792.08 47.25,-786.08 53.25,-780.08 59.25,-780.08 59.25,-780.08 385.41,-780.08 385.41,-780.08 391.41,-780.08 397.41,-786.08 397.41,-792.08 397.41,-792.08 397.41,-807.04 397.41,-807.04 397.41,-813.04 391.41,-819.04 385.41,-819.04"/>
<text xml:space="preserve" text-anchor="start" x="171.33" y="-801.21" font-family="Helvetica,sans-Serif" font-size="13.00" fill="#111827"> &#160;&#160;&#160;&#160;&#160;</text>
<text xml:space="preserve" text-anchor="start" x="193.83" y="-801.21" font-family="Helvetica,sans-Serif" font-weight="bold" font-size="13.00" fill="#111827">User prompt</text>
<text xml:space="preserve" text-anchor="start" x="57.33" y="-788.21" font-family="Helvetica,sans-Serif" font-size="13.00" fill="#111827"> &#160;&#160;&#160;&#160;&#160;Enter INC / approve ACTIVE / ask side questions &#160;&#160;&#160;</text>
</g>
<!-- codex -->
<g id="node2" class="node">
<title>codex</title>
<path fill="#f8fafc" stroke="#cbd5e1" stroke-width="1.4" d="M314.91,-726.08C314.91,-726.08 129.75,-726.08 129.75,-726.08 123.75,-726.08 117.75,-720.08 117.75,-714.08 117.75,-714.08 117.75,-673.12 117.75,-673.12 117.75,-667.12 123.75,-661.12 129.75,-661.12 129.75,-661.12 314.91,-661.12 314.91,-661.12 320.91,-661.12 326.91,-667.12 326.91,-673.12 326.91,-673.12 326.91,-714.08 326.91,-714.08 326.91,-720.08 320.91,-726.08 314.91,-726.08"/>
<text xml:space="preserve" text-anchor="start" x="170.58" y="-708.25" font-family="Helvetica,sans-Serif" font-size="13.00" fill="#111827"> &#160;&#160;&#160;&#160;&#160;</text>
<text xml:space="preserve" text-anchor="start" x="193.08" y="-708.25" font-family="Helvetica,sans-Serif" font-weight="bold" font-size="13.00" fill="#111827">Codex agent</text>
<text xml:space="preserve" text-anchor="start" x="127.83" y="-695.25" font-family="Helvetica,sans-Serif" font-size="13.00" fill="#111827"> &#160;&#160;&#160;&#160;&#160;Answers the latest message</text>
<text xml:space="preserve" text-anchor="start" x="127.83" y="-682.25" font-family="Helvetica,sans-Serif" font-size="13.00" fill="#111827"> &#160;&#160;&#160;&#160;&#160;Maintains the mainline</text>
<text xml:space="preserve" text-anchor="start" x="131.2" y="-669.25" font-family="Helvetica,sans-Serif" font-size="13.00" fill="#111827"> &#160;&#160;&#160;&#160;&#160;Chooses the next action &#160;&#160;&#160;</text>
</g>
<!-- user&#45;&gt;codex -->
<g id="edge1" class="edge">
<title>user&#45;&gt;codex</title>
<path fill="none" stroke="#64748b" stroke-width="1.5" d="M222.33,-779.49C222.33,-767.37 222.33,-751.2 222.33,-736.23"/>
<polygon fill="#64748b" stroke="#64748b" stroke-width="1.5" points="224.96,-736.38 222.33,-728.88 219.71,-736.38 224.96,-736.38"/>
<text xml:space="preserve" text-anchor="middle" x="262.45" y="-748.63" font-family="Helvetica,sans-Serif" font-size="11.00" fill="#475569">natural language</text>
</g>
<!-- skill -->
<g id="node3" class="node">
<title>skill</title>
<path fill="#ecfdf5" stroke="#0f766e" stroke-width="1.4" d="M150.66,-508.16C150.66,-508.16 12,-508.16 12,-508.16 6,-508.16 0,-502.16 0,-496.16 0,-496.16 0,-455.2 0,-455.2 0,-449.2 6,-443.2 12,-443.2 12,-443.2 150.66,-443.2 150.66,-443.2 156.66,-443.2 162.66,-449.2 162.66,-455.2 162.66,-455.2 162.66,-496.16 162.66,-496.16 162.66,-502.16 156.66,-508.16 150.66,-508.16"/>
<text xml:space="preserve" text-anchor="start" x="41.95" y="-490.33" font-family="Helvetica,sans-Serif" font-size="13.00" fill="#111827"> &#160;&#160;&#160;&#160;&#160;</text>
<text xml:space="preserve" text-anchor="start" x="64.45" y="-490.33" font-family="Helvetica,sans-Serif" font-weight="bold" font-size="13.00" fill="#111827">LLR skill</text>
<text xml:space="preserve" text-anchor="start" x="10.08" y="-477.33" font-family="Helvetica,sans-Serif" font-size="13.00" fill="#111827"> &#160;&#160;&#160;&#160;&#160;SKILL.md</text>
<text xml:space="preserve" text-anchor="start" x="10.08" y="-464.33" font-family="Helvetica,sans-Serif" font-size="13.00" fill="#111827"> &#160;&#160;&#160;&#160;&#160;INC operating guide</text>
<text xml:space="preserve" text-anchor="start" x="10.45" y="-451.33" font-family="Helvetica,sans-Serif" font-size="13.00" fill="#111827"> &#160;&#160;&#160;&#160;&#160;Prompt templates &#160;&#160;&#160;</text>
</g>
<!-- codex&#45;&gt;skill -->
<g id="edge2" class="edge">
<title>codex&#45;&gt;skill</title>
<path fill="none" stroke="#64748b" stroke-width="1.5" d="M160.15,-660.56C139.32,-646.83 117.95,-628.88 104.33,-607.12 87.76,-580.65 82.3,-545.55 80.82,-518.43"/>
<polygon fill="#64748b" stroke="#64748b" stroke-width="1.5" points="83.45,-518.49 80.53,-511.1 78.21,-518.69 83.45,-518.49"/>
<text xml:space="preserve" text-anchor="middle" x="143.15" y="-629.67" font-family="Helvetica,sans-Serif" font-size="11.00" fill="#475569">uses</text>
</g>
<!-- inc -->
<g id="node4" class="node">
<title>inc</title>
<path fill="#e0f2fe" stroke="#0284c7" stroke-width="1.4" d="M312.66,-607.12C312.66,-607.12 132,-607.12 132,-607.12 126,-607.12 120,-601.12 120,-595.12 120,-595.12 120,-541.16 120,-541.16 120,-535.16 126,-529.16 132,-529.16 132,-529.16 312.66,-529.16 312.66,-529.16 318.66,-529.16 324.66,-535.16 324.66,-541.16 324.66,-541.16 324.66,-595.12 324.66,-595.12 324.66,-601.12 318.66,-607.12 312.66,-607.12"/>
<text xml:space="preserve" text-anchor="start" x="179.95" y="-589.29" font-family="Helvetica,sans-Serif" font-size="13.00" fill="#111827"> &#160;&#160;&#160;&#160;&#160;</text>
<text xml:space="preserve" text-anchor="start" x="202.45" y="-589.29" font-family="Helvetica,sans-Serif" font-weight="bold" font-size="13.00" fill="#111827">INC mode</text>
<text xml:space="preserve" text-anchor="start" x="130.08" y="-576.29" font-family="Helvetica,sans-Serif" font-size="13.00" fill="#111827"> &#160;&#160;&#160;&#160;&#160;Evidence&#45;chain exploration</text>
<text xml:space="preserve" text-anchor="start" x="130.08" y="-563.29" font-family="Helvetica,sans-Serif" font-size="13.00" fill="#111827"> &#160;&#160;&#160;&#160;&#160;Domain calibration</text>
<text xml:space="preserve" text-anchor="start" x="130.08" y="-550.29" font-family="Helvetica,sans-Serif" font-size="13.00" fill="#111827"> &#160;&#160;&#160;&#160;&#160;Contract clarification</text>
<text xml:space="preserve" text-anchor="start" x="134.2" y="-537.29" font-family="Helvetica,sans-Serif" font-size="13.00" fill="#111827"> &#160;&#160;&#160;&#160;&#160;May remain standalone &#160;&#160;&#160;</text>
</g>
<!-- codex&#45;&gt;inc -->
<g id="edge4" class="edge">
<title>codex&#45;&gt;inc</title>
<path fill="none" stroke="#64748b" stroke-width="1.5" d="M222.33,-660.48C222.33,-647.24 222.33,-631.61 222.33,-617.06"/>
<polygon fill="#64748b" stroke="#64748b" stroke-width="1.5" points="224.96,-617.46 222.33,-609.96 219.71,-617.46 224.96,-617.46"/>
<text xml:space="preserve" text-anchor="middle" x="266.58" y="-629.67" font-family="Helvetica,sans-Serif" font-size="11.00" fill="#475569">reduce uncertainty</text>
</g>
<!-- active -->
<g id="node5" class="node">
<title>active</title>
<path fill="#fef3c7" stroke="#d97706" stroke-width="1.4" d="M703.16,-600.62C703.16,-600.62 489.5,-600.62 489.5,-600.62 483.5,-600.62 477.5,-594.62 477.5,-588.62 477.5,-588.62 477.5,-547.66 477.5,-547.66 477.5,-541.66 483.5,-535.66 489.5,-535.66 489.5,-535.66 703.16,-535.66 703.16,-535.66 709.16,-535.66 715.16,-541.66 715.16,-547.66 715.16,-547.66 715.16,-588.62 715.16,-588.62 715.16,-594.62 709.16,-600.62 703.16,-600.62"/>
<text xml:space="preserve" text-anchor="start" x="540.83" y="-582.79" font-family="Helvetica,sans-Serif" font-size="13.00" fill="#111827"> &#160;&#160;&#160;&#160;&#160;</text>
<text xml:space="preserve" text-anchor="start" x="563.33" y="-582.79" font-family="Helvetica,sans-Serif" font-weight="bold" font-size="13.00" fill="#111827">ACTIVE mode</text>
<text xml:space="preserve" text-anchor="start" x="487.58" y="-569.79" font-family="Helvetica,sans-Serif" font-size="13.00" fill="#111827"> &#160;&#160;&#160;&#160;&#160;Explicitly authorized mainline</text>
<text xml:space="preserve" text-anchor="start" x="487.58" y="-556.79" font-family="Helvetica,sans-Serif" font-size="13.00" fill="#111827"> &#160;&#160;&#160;&#160;&#160;Side&#45;thread tolerance</text>
<text xml:space="preserve" text-anchor="start" x="487.58" y="-543.79" font-family="Helvetica,sans-Serif" font-size="13.00" fill="#111827"> &#160;&#160;&#160;&#160;&#160;Contract&#45;covered continuation &#160;&#160;&#160;</text>
</g>
<!-- codex&#45;&gt;active -->
<g id="edge5" class="edge">
<title>codex&#45;&gt;active</title>
<path fill="none" stroke="#64748b" stroke-width="1.5" d="M319.62,-660.48C371.79,-643.26 436.17,-622.01 489.7,-604.34"/>
<polygon fill="#64748b" stroke="#64748b" stroke-width="1.5" points="490.43,-606.86 496.72,-602.02 488.78,-601.88 490.43,-606.86"/>
<text xml:space="preserve" text-anchor="middle" x="467.83" y="-629.67" font-family="Helvetica,sans-Serif" font-size="11.00" fill="#475569">execute authorized work</text>
</g>
<!-- scripts -->
<g id="node6" class="node">
<title>scripts</title>
<path fill="#f0fdfa" stroke="#0f766e" stroke-width="1.4" d="M191.16,-291.06C191.16,-291.06 85.5,-291.06 85.5,-291.06 79.5,-291.06 73.5,-285.06 73.5,-279.06 73.5,-279.06 73.5,-238.1 73.5,-238.1 73.5,-232.1 79.5,-226.1 85.5,-226.1 85.5,-226.1 191.16,-226.1 191.16,-226.1 197.16,-226.1 203.16,-232.1 203.16,-238.1 203.16,-238.1 203.16,-279.06 203.16,-279.06 203.16,-285.06 197.16,-291.06 191.16,-291.06"/>
<text xml:space="preserve" text-anchor="start" x="88.08" y="-273.23" font-family="Helvetica,sans-Serif" font-size="13.00" fill="#111827"> &#160;&#160;&#160;&#160;&#160;</text>
<text xml:space="preserve" text-anchor="start" x="110.58" y="-273.23" font-family="Helvetica,sans-Serif" font-weight="bold" font-size="13.00" fill="#111827">Runtime API</text>
<text xml:space="preserve" text-anchor="start" x="83.58" y="-260.23" font-family="Helvetica,sans-Serif" font-size="13.00" fill="#111827"> &#160;&#160;&#160;&#160;&#160;state.py</text>
<text xml:space="preserve" text-anchor="start" x="83.58" y="-247.23" font-family="Helvetica,sans-Serif" font-size="13.00" fill="#111827"> &#160;&#160;&#160;&#160;&#160;runtime.py</text>
<text xml:space="preserve" text-anchor="start" x="83.58" y="-234.23" font-family="Helvetica,sans-Serif" font-size="13.00" fill="#111827"> &#160;&#160;&#160;&#160;&#160;controller.py &#160;&#160;&#160;</text>
</g>
<!-- skill&#45;&gt;scripts -->
<g id="edge3" class="edge">
<title>skill&#45;&gt;scripts</title>
<path fill="none" stroke="#64748b" stroke-width="1.5" d="M89.74,-442.94C99.74,-405.21 116.45,-342.16 127.43,-300.72"/>
<polygon fill="#64748b" stroke="#64748b" stroke-width="1.5" points="129.92,-301.57 129.3,-293.64 124.84,-300.22 129.92,-301.57"/>
<text xml:space="preserve" text-anchor="middle" x="142.27" y="-385.27" font-family="Helvetica,sans-Serif" font-size="11.00" fill="#475569">runtime calls</text>
</g>
<!-- inc&#45;&gt;active -->
<g id="edge6" class="edge">
<title>inc&#45;&gt;active</title>
<path fill="none" stroke="#64748b" stroke-width="1.5" d="M325.02,-568.14C369.02,-568.14 420.9,-568.14 467.45,-568.14"/>
<polygon fill="#64748b" stroke="#64748b" stroke-width="1.5" points="467.22,-570.77 474.72,-568.14 467.22,-565.52 467.22,-570.77"/>
<text xml:space="preserve" text-anchor="middle" x="401.08" y="-572.69" font-family="Helvetica,sans-Serif" font-size="11.00" fill="#475569">explicit user authorization</text>
</g>
<!-- state -->
<g id="node7" class="node">
<title>state</title>
<path fill="#f8fafc" stroke="#94a3b8" stroke-width="1.4" d="M501.66,-295.12C501.66,-299.6 459.83,-303.24 408.33,-303.24 356.83,-303.24 315,-299.6 315,-295.12 315,-295.12 315,-222.04 315,-222.04 315,-217.56 356.83,-213.92 408.33,-213.92 459.83,-213.92 501.66,-217.56 501.66,-222.04 501.66,-222.04 501.66,-295.12 501.66,-295.12"/>
<path fill="none" stroke="#94a3b8" stroke-width="1.4" d="M501.66,-295.12C501.66,-290.64 459.83,-287 408.33,-287 356.83,-287 315,-290.64 315,-295.12"/>
<text xml:space="preserve" text-anchor="start" x="333.7" y="-273.23" font-family="Helvetica,sans-Serif" font-size="13.00" fill="#111827"> &#160;&#160;&#160;&#160;&#160;</text>
<text xml:space="preserve" text-anchor="start" x="356.2" y="-273.23" font-family="Helvetica,sans-Serif" font-weight="bold" font-size="13.00" fill="#111827">Session state JSON</text>
<text xml:space="preserve" text-anchor="start" x="325.08" y="-260.23" font-family="Helvetica,sans-Serif" font-size="13.00" fill="#111827"> &#160;&#160;&#160;&#160;&#160;runtime + contract</text>
<text xml:space="preserve" text-anchor="start" x="325.08" y="-247.23" font-family="Helvetica,sans-Serif" font-size="13.00" fill="#111827"> &#160;&#160;&#160;&#160;&#160;thinking.evidence_chain</text>
<text xml:space="preserve" text-anchor="start" x="327.33" y="-234.23" font-family="Helvetica,sans-Serif" font-size="13.00" fill="#111827"> &#160;&#160;&#160;&#160;&#160;activation + progress &#160;&#160;&#160;</text>
</g>
<!-- inc&#45;&gt;state -->
<g id="edge7" class="edge">
<title>inc&#45;&gt;state</title>
<path fill="none" stroke="#64748b" stroke-width="1.5" d="M213.48,-528.65C205.43,-483.88 199.19,-409.48 231.58,-357.24 248.82,-329.44 276.96,-308.94 305.78,-294.1"/>
<polygon fill="#64748b" stroke="#64748b" stroke-width="1.5" points="306.73,-296.56 312.29,-290.88 304.4,-291.85 306.73,-296.56"/>
<text xml:space="preserve" text-anchor="middle" x="278.45" y="-385.27" font-family="Helvetica,sans-Serif" font-size="11.00" fill="#475569">evidence + contract</text>
</g>
<!-- active&#45;&gt;state -->
<g id="edge8" class="edge">
<title>active&#45;&gt;state</title>
<path fill="none" stroke="#64748b" stroke-width="1.5" d="M596.26,-535.29C594.38,-483.89 583.15,-382.54 526.33,-324.24 519.91,-317.65 512.67,-311.56 505.02,-305.97"/>
<polygon fill="#64748b" stroke="#64748b" stroke-width="1.5" points="506.76,-303.99 499.11,-301.85 503.76,-308.29 506.76,-303.99"/>
<text xml:space="preserve" text-anchor="middle" x="633.77" y="-385.27" font-family="Helvetica,sans-Serif" font-size="11.00" fill="#475569">checkpoints + progress</text>
</g>
<!-- outcome -->
<g id="node10" class="node">
<title>outcome</title>
<path fill="#f8fafc" stroke="#cbd5e1" stroke-width="1.4" d="M515.28,-422.2C515.28,-422.2 353.38,-422.2 353.38,-422.2 347.38,-422.2 341.38,-416.2 341.38,-410.2 341.38,-410.2 341.38,-369.24 341.38,-369.24 341.38,-363.24 347.38,-357.24 353.38,-357.24 353.38,-357.24 515.28,-357.24 515.28,-357.24 521.28,-357.24 527.28,-363.24 527.28,-369.24 527.28,-369.24 527.28,-410.2 527.28,-410.2 527.28,-416.2 521.28,-422.2 515.28,-422.2"/>
<text xml:space="preserve" text-anchor="start" x="394.58" y="-404.37" font-family="Helvetica,sans-Serif" font-size="13.00" fill="#111827"> &#160;&#160;&#160;&#160;&#160;</text>
<text xml:space="preserve" text-anchor="start" x="417.08" y="-404.37" font-family="Helvetica,sans-Serif" font-weight="bold" font-size="13.00" fill="#111827">Outcome</text>
<text xml:space="preserve" text-anchor="start" x="351.45" y="-391.37" font-family="Helvetica,sans-Serif" font-size="13.00" fill="#111827"> &#160;&#160;&#160;&#160;&#160;Continue mainline</text>
<text xml:space="preserve" text-anchor="start" x="351.45" y="-378.37" font-family="Helvetica,sans-Serif" font-size="13.00" fill="#111827"> &#160;&#160;&#160;&#160;&#160;Return to INC</text>
<text xml:space="preserve" text-anchor="start" x="351.45" y="-365.37" font-family="Helvetica,sans-Serif" font-size="13.00" fill="#111827"> &#160;&#160;&#160;&#160;&#160;Close when complete &#160;&#160;&#160;</text>
</g>
<!-- active&#45;&gt;outcome -->
<g id="edge14" class="edge">
<title>active&#45;&gt;outcome</title>
<path fill="none" stroke="#64748b" stroke-width="1.5" d="M476.8,-544.37C459.12,-535.85 443.09,-524.16 431.83,-508.16 416.55,-486.44 417.46,-456.43 422.04,-432.19"/>
<polygon fill="#64748b" stroke="#64748b" stroke-width="1.5" points="424.56,-432.97 423.56,-425.09 419.43,-431.88 424.56,-432.97"/>
<text xml:space="preserve" text-anchor="middle" x="501.58" y="-471.23" font-family="Helvetica,sans-Serif" font-size="11.00" fill="#475569">complete / blocked / changed</text>
</g>
<!-- scripts&#45;&gt;state -->
<g id="edge9" class="edge">
<title>scripts&#45;&gt;state</title>
<path fill="none" stroke="#64748b" stroke-width="1.5" d="M203.69,-258.58C234.08,-258.58 270.94,-258.58 304.97,-258.58"/>
<polygon fill="#64748b" stroke="#64748b" stroke-width="1.5" points="304.71,-261.21 312.21,-258.58 304.71,-255.96 304.71,-261.21"/>
<text xml:space="preserve" text-anchor="middle" x="259.08" y="-263.13" font-family="Helvetica,sans-Serif" font-size="11.00" fill="#475569">read / write</text>
</g>
<!-- user_hook -->
<g id="node8" class="node">
<title>user_hook</title>
<path fill="#f5f3ff" stroke="#7c3aed" stroke-width="1.4" d="M359.03,-153.42C359.03,-153.42 171.62,-153.42 171.62,-153.42 165.62,-153.42 159.62,-147.42 159.62,-141.42 159.62,-141.42 159.62,-113.46 159.62,-113.46 159.62,-107.46 165.62,-101.46 171.62,-101.46 171.62,-101.46 359.03,-101.46 359.03,-101.46 365.03,-101.46 371.03,-107.46 371.03,-113.46 371.03,-113.46 371.03,-141.42 371.03,-141.42 371.03,-147.42 365.03,-153.42 359.03,-153.42"/>
<text xml:space="preserve" text-anchor="start" x="175.33" y="-135.59" font-family="Helvetica,sans-Serif" font-size="13.00" fill="#111827"> &#160;&#160;&#160;&#160;&#160;</text>
<text xml:space="preserve" text-anchor="start" x="197.83" y="-135.59" font-family="Helvetica,sans-Serif" font-weight="bold" font-size="13.00" fill="#111827">UserPromptSubmit hook</text>
<text xml:space="preserve" text-anchor="start" x="169.7" y="-122.59" font-family="Helvetica,sans-Serif" font-size="13.00" fill="#111827"> &#160;&#160;&#160;&#160;&#160;Injects compact LLR context</text>
<text xml:space="preserve" text-anchor="start" x="170.08" y="-109.59" font-family="Helvetica,sans-Serif" font-size="13.00" fill="#111827"> &#160;&#160;&#160;&#160;&#160;Reminds mode semantics &#160;&#160;&#160;</text>
</g>
<!-- state&#45;&gt;user_hook -->
<g id="edge10" class="edge">
<title>state&#45;&gt;user_hook</title>
<path fill="none" stroke="#64748b" stroke-width="1.5" d="M359.52,-213.5C340.09,-195.95 318.17,-176.16 300.36,-160.08"/>
<polygon fill="#64748b" stroke="#64748b" stroke-width="1.5" points="302.52,-158.49 295.19,-155.41 299,-162.38 302.52,-158.49"/>
<text xml:space="preserve" text-anchor="middle" x="368.17" y="-182.47" font-family="Helvetica,sans-Serif" font-size="11.00" fill="#475569">prompt context</text>
</g>
<!-- stop_hook -->
<g id="node9" class="node">
<title>stop_hook</title>
<path fill="#f5f3ff" stroke="#7c3aed" stroke-width="1.4" d="M617.91,-159.92C617.91,-159.92 414.75,-159.92 414.75,-159.92 408.75,-159.92 402.75,-153.92 402.75,-147.92 402.75,-147.92 402.75,-106.96 402.75,-106.96 402.75,-100.96 408.75,-94.96 414.75,-94.96 414.75,-94.96 617.91,-94.96 617.91,-94.96 623.91,-94.96 629.91,-100.96 629.91,-106.96 629.91,-106.96 629.91,-147.92 629.91,-147.92 629.91,-153.92 623.91,-159.92 617.91,-159.92"/>
<text xml:space="preserve" text-anchor="start" x="472.08" y="-142.09" font-family="Helvetica,sans-Serif" font-size="13.00" fill="#111827"> &#160;&#160;&#160;&#160;&#160;</text>
<text xml:space="preserve" text-anchor="start" x="494.58" y="-142.09" font-family="Helvetica,sans-Serif" font-weight="bold" font-size="13.00" fill="#111827">Stop hook</text>
<text xml:space="preserve" text-anchor="start" x="412.83" y="-129.09" font-family="Helvetica,sans-Serif" font-size="13.00" fill="#111827"> &#160;&#160;&#160;&#160;&#160;Allows INC / disabled</text>
<text xml:space="preserve" text-anchor="start" x="412.83" y="-116.09" font-family="Helvetica,sans-Serif" font-size="13.00" fill="#111827"> &#160;&#160;&#160;&#160;&#160;Blocks premature ACTIVE stop</text>
<text xml:space="preserve" text-anchor="start" x="417.7" y="-103.09" font-family="Helvetica,sans-Serif" font-size="13.00" fill="#111827"> &#160;&#160;&#160;&#160;&#160;Requires close or continue &#160;&#160;&#160;</text>
</g>
<!-- state&#45;&gt;stop_hook -->
<g id="edge11" class="edge">
<title>state&#45;&gt;stop_hook</title>
<path fill="none" stroke="#64748b" stroke-width="1.5" d="M445.2,-213.5C457.58,-198.69 471.31,-182.28 483.37,-167.85"/>
<polygon fill="#64748b" stroke="#64748b" stroke-width="1.5" points="485.26,-169.68 488.06,-162.25 481.23,-166.32 485.26,-169.68"/>
<text xml:space="preserve" text-anchor="middle" x="503.13" y="-182.47" font-family="Helvetica,sans-Serif" font-size="11.00" fill="#475569">stop decision</text>
</g>
<!-- feedback -->
<g id="node11" class="node">
<title>feedback</title>
<path fill="#eef2ff" stroke="#6366f1" stroke-width="1.4" d="M505.78,-51.96C505.78,-51.96 274.88,-51.96 274.88,-51.96 268.88,-51.96 262.88,-45.96 262.88,-39.96 262.88,-39.96 262.88,-12 262.88,-12 262.88,-6 268.88,0 274.88,0 274.88,0 505.78,0 505.78,0 511.78,0 517.78,-6 517.78,-12 517.78,-12 517.78,-39.96 517.78,-39.96 517.78,-45.96 511.78,-51.96 505.78,-51.96"/>
<text xml:space="preserve" text-anchor="start" x="331.08" y="-34.13" font-family="Helvetica,sans-Serif" font-size="13.00" fill="#111827"> &#160;&#160;&#160;&#160;&#160;</text>
<text xml:space="preserve" text-anchor="start" x="353.58" y="-34.13" font-family="Helvetica,sans-Serif" font-weight="bold" font-size="13.00" fill="#111827">Hook feedback</text>
<text xml:space="preserve" text-anchor="start" x="272.95" y="-21.13" font-family="Helvetica,sans-Serif" font-size="13.00" fill="#111827"> &#160;&#160;&#160;&#160;&#160;Feeds Codex with next&#45;turn context</text>
<text xml:space="preserve" text-anchor="start" x="290.2" y="-8.13" font-family="Helvetica,sans-Serif" font-size="13.00" fill="#111827"> &#160;&#160;&#160;&#160;&#160;or a premature&#45;stop prompt &#160;&#160;&#160;</text>
</g>
<!-- user_hook&#45;&gt;feedback -->
<g id="edge12" class="edge">
<title>user_hook&#45;&gt;feedback</title>
<path fill="none" stroke="#64748b" stroke-width="1.5" d="M297.52,-100.83C313.85,-87.83 333.82,-71.94 351.05,-58.23"/>
<polygon fill="#64748b" stroke="#64748b" stroke-width="1.5" points="352.24,-60.64 356.47,-53.92 348.97,-56.54 352.24,-60.64"/>
</g>
<!-- stop_hook&#45;&gt;feedback -->
<g id="edge13" class="edge">
<title>stop_hook&#45;&gt;feedback</title>
<path fill="none" stroke="#64748b" stroke-width="1.5" d="M475.77,-94.42C461.19,-82.91 444.76,-69.95 430.24,-58.48"/>
<polygon fill="#64748b" stroke="#64748b" stroke-width="1.5" points="432.13,-56.63 424.62,-54.05 428.88,-60.75 432.13,-56.63"/>
</g>
<!-- outcome&#45;&gt;inc -->
<g id="edge15" class="edge">
<title>outcome&#45;&gt;inc</title>
<path fill="none" stroke="#64748b" stroke-width="1.5" stroke-dasharray="5,2" d="M365.74,-422.82C355,-428.99 344.32,-435.84 334.83,-443.2 305.78,-465.73 277.96,-496.26 257.26,-521.38"/>
<polygon fill="#64748b" stroke="#64748b" stroke-width="1.5" points="255.48,-519.41 252.78,-526.89 259.55,-522.73 255.48,-519.41"/>
<text xml:space="preserve" text-anchor="middle" x="373.08" y="-471.23" font-family="Helvetica,sans-Serif" font-size="11.00" fill="#475569">material change</text>
</g>
<!-- outcome&#45;&gt;state -->
<g id="edge16" class="edge">
<title>outcome&#45;&gt;state</title>
<path fill="none" stroke="#64748b" stroke-width="1.5" d="M427.9,-356.8C425.26,-343.69 422.13,-328.14 419.16,-313.36"/>
<polygon fill="#64748b" stroke="#64748b" stroke-width="1.5" points="421.73,-312.86 417.68,-306.03 416.59,-313.9 421.73,-312.86"/>
<text xml:space="preserve" text-anchor="middle" x="470.91" y="-325.79" font-family="Helvetica,sans-Serif" font-size="11.00" fill="#475569">closure / checkpoint</text>
</g>
</g>
</svg>
